<?xml version="1.0" standalone="no"?>
<!DOCTYPE svg PUBLIC "-//W3C//DTD SVG 20010904//EN"
 "http://www.w3.org/TR/2001/REC-SVG-20010904/DTD/svg10.dtd">
<svg version="1.0" xmlns="http://www.w3.org/2000/svg"
 width="1024.000000pt" height="1024.000000pt" viewBox="0 0 1024.000000 1024.000000"
 preserveAspectRatio="xMidYMid meet">

<g transform="translate(0.000000,1024.000000) scale(0.100000,-0.100000)"
fill="#000000" stroke="none">
<path d="M5142 8721 c-7 -4 -19 -32 -27 -62 -39 -142 -146 -706 -245 -1284
-59 -348 -161 -920 -163 -921 -8 -3 -666 355 -923 502 -100 57 -184 104 -188
104 -18 0 1 -43 65 -148 94 -152 394 -637 424 -682 54 -83 175 -284 175 -291
0 -4 -21 -10 -47 -14 -43 -6 -613 -115 -788 -150 -172 -34 -614 -115 -631
-115 -19 0 -19 6 -12 103 18 242 108 546 243 822 196 401 486 741 832 977 217
148 511 276 746 325 l87 18 0 80 c0 44 3 90 6 103 5 19 2 22 -19 22 -44 0
-287 -66 -402 -110 -378 -142 -679 -341 -960 -631 -426 -442 -710 -1068 -751
-1656 -4 -51 -8 -93 -9 -93 -8 0 -350 -71 -387 -80 -56 -15 -66 -43 -20 -61
29 -12 263 -62 352 -76 l54 -8 17 -140 c68 -549 288 -1051 638 -1457 339 -392
851 -699 1356 -813 61 -14 113 -25 118 -25 4 0 7 47 7 104 l0 103 -82 18
c-297 64 -705 270 -963 487 -255 214 -482 503 -632 803 -82 164 -165 415 -203
613 -22 117 -39 272 -31 276 11 6 616 -93 1113 -181 l376 -67 -20 -40 c-27
-54 -371 -617 -483 -791 -147 -229 -194 -315 -170 -315 13 0 106 53 432 247
580 344 660 390 668 381 1 -2 19 -88 39 -193 43 -223 77 -391 146 -725 28
-135 55 -265 60 -290 5 -25 34 -157 65 -295 98 -440 116 -491 163 -466 28 15
76 194 207 781 63 281 86 395 185 919 27 145 52 266 54 269 6 5 67 -29 326
-183 113 -67 248 -147 300 -177 52 -31 156 -92 231 -136 183 -108 239 -136
251 -124 12 12 7 22 -107 202 -183 288 -565 915 -565 928 0 4 96 24 213 45
116 20 313 55 437 77 195 35 709 119 809 132 l34 5 -6 -71 c-35 -407 -221
-882 -479 -1226 -125 -166 -348 -384 -518 -506 -236 -170 -525 -302 -822 -375
l-88 -21 0 -103 0 -102 43 8 c87 16 246 59 346 94 550 191 996 545 1322 1048
93 143 222 413 278 582 72 216 103 365 137 663 4 33 9 42 24 42 42 0 387 73
408 86 51 33 19 46 -222 95 l-204 42 -7 86 c-38 481 -239 1000 -545 1411 -184
247 -372 428 -610 589 -229 154 -417 247 -660 326 -94 30 -272 74 -302 75 -5
0 -8 -47 -8 -104 l0 -105 58 -11 c220 -43 526 -174 746 -320 197 -131 420
-338 574 -533 242 -306 423 -699 497 -1081 27 -135 43 -296 31 -296 -21 0
-672 120 -1004 185 -211 41 -405 77 -433 81 -27 4 -49 10 -49 15 0 5 37 66 81
136 45 71 175 277 289 458 114 182 230 366 258 410 84 129 73 136 -79 49 -280
-161 -417 -238 -604 -339 -259 -140 -387 -206 -393 -201 -2 3 -17 89 -33 193
-52 331 -88 550 -145 868 -30 171 -66 371 -79 445 -34 189 -133 678 -147 720
-14 46 -30 58 -56 41z m19 -1084 c4 -221 10 -413 12 -427 3 -14 17 -83 31
-155 32 -160 164 -839 171 -878 4 -25 -6 -40 -83 -120 -48 -51 -100 -107 -115
-126 -15 -18 -29 -32 -31 -30 -2 2 -55 62 -119 132 -66 72 -114 133 -111 141
3 7 -7 27 -22 45 l-26 32 36 262 c97 694 121 856 172 1172 31 187 57 346 60
354 13 41 18 -36 25 -402z m-970 -1108 c333 -244 453 -344 677 -564 l173 -170
-98 -98 -98 -97 -104 112 c-110 119 -284 334 -516 637 -77 101 -169 220 -204
265 -35 44 -69 87 -75 95 -6 8 23 -12 65 -45 42 -32 123 -93 180 -135z m2154
144 c-21 -27 -53 -64 -70 -83 -18 -19 -128 -159 -246 -310 -117 -151 -233
-300 -258 -330 -80 -100 -304 -351 -310 -348 -3 2 -49 47 -101 101 l-95 99 95
89 c269 254 571 508 785 659 50 35 121 87 159 117 37 29 70 53 73 53 3 0 -12
-21 -32 -47z m-1755 -1054 l105 -101 -85 -79 c-47 -44 -94 -86 -105 -94 -17
-12 -68 -6 -400 50 -413 68 -487 78 -795 101 -112 8 -206 16 -207 18 -5 4 214
32 482 61 209 23 547 77 780 124 50 10 97 19 105 19 8 1 62 -44 120 -99z
m1319 85 c319 -66 522 -97 866 -133 154 -17 323 -36 375 -43 l95 -12 -70 -8
c-38 -4 -167 -14 -285 -22 -161 -11 -301 -29 -550 -70 -184 -31 -378 -62 -430
-69 l-95 -14 -35 30 c-58 49 -160 148 -160 155 0 11 194 202 205 202 5 0 43
-7 84 -16z m-672 -96 c83 -85 83 -87 0 -173 -70 -73 -97 -74 -159 -7 -24 26
-53 60 -62 75 l-18 27 73 75 c40 41 78 75 84 75 6 0 43 -33 82 -72z m-365
-210 c20 -24 65 -73 102 -110 l66 -67 -138 -129 c-203 -192 -278 -253 -602
-495 -162 -121 -310 -233 -327 -250 -18 -17 -33 -26 -33 -20 0 6 7 17 16 24
29 24 323 397 393 499 59 84 234 306 341 429 63 73 119 140 125 147 15 20 19
18 57 -28z m1030 -471 c325 -417 404 -518 445 -566 26 -31 31 -40 16 -32 -12
6 -25 15 -28 21 -5 8 -56 47 -235 179 -19 14 -44 33 -56 41 -218 147 -412 308
-662 546 -52 49 -99 92 -105 96 -12 7 -3 17 142 170 l53 56 109 -120 c60 -66
204 -242 321 -391z m-567 -92 c-7 -98 -29 -387 -46 -585 -27 -326 -65 -643
-97 -820 l-17 -95 -6 55 c-5 47 -6 40 -8 -45 -2 -55 -6 -111 -10 -125 l-8 -25
-6 30 c-13 57 -36 231 -61 455 -33 291 -118 1217 -114 1236 2 8 44 59 93 113
l90 98 98 -101 97 -101 -5 -90z"/>
<path d="M4658 7705 c-10 -22 -9 -29 10 -47 20 -20 22 -20 46 -4 42 27 29 76
-21 76 -15 0 -27 -9 -35 -25z"/>
<path d="M5580 7715 c-14 -17 -6 -61 13 -68 20 -8 61 15 65 36 8 40 -51 64
-78 32z"/>
<path d="M4451 7647 c-8 -11 5 -61 58 -213 38 -109 76 -203 84 -208 12 -8 21
-6 32 5 14 14 10 34 -49 205 -35 104 -67 197 -71 207 -8 20 -38 22 -54 4z"/>
<path d="M5803 7613 c-48 -115 -126 -360 -120 -376 9 -24 41 -21 55 6 7 12 41
103 76 202 57 163 62 182 48 198 -24 27 -38 20 -59 -30z"/>
<path d="M4257 7565 c-18 -18 -17 -20 58 -182 42 -91 55 -102 84 -84 13 8 10
20 -13 79 -41 101 -89 196 -102 200 -7 1 -19 -4 -27 -13z"/>
<path d="M5985 7497 c-84 -185 -89 -207 -47 -207 26 0 30 6 86 131 51 114 54
142 18 147 -19 3 -27 -7 -57 -71z"/>
<path d="M4068 7479 c-10 -6 -18 -17 -18 -26 0 -20 77 -153 89 -153 4 0 15 6
26 13 17 13 16 17 -14 78 -41 81 -60 101 -83 88z"/>
<path d="M6208 7458 c-32 -49 -68 -129 -63 -138 4 -6 16 -10 29 -10 30 0 105
124 89 149 -16 25 -39 24 -55 -1z"/>
<path d="M3871 7346 c-15 -18 -17 -14 67 -139 52 -76 71 -97 87 -95 37 5 27
41 -42 143 -69 101 -90 118 -112 91z"/>
<path d="M6340 7263 c-68 -104 -80 -146 -44 -151 16 -2 35 18 87 95 37 54 67
105 67 114 0 17 -19 39 -35 39 -6 0 -40 -44 -75 -97z"/>
<path d="M4181 7206 c-9 -10 -5 -26 16 -66 32 -60 41 -66 68 -46 17 12 17 17
5 45 -17 42 -48 81 -65 81 -7 0 -18 -6 -24 -14z"/>
<path d="M6076 7188 c-35 -55 -41 -78 -23 -95 15 -15 18 -15 34 0 27 24 56 84
50 101 -9 23 -44 19 -61 -6z"/>
<path d="M4482 6958 c-18 -18 -16 -27 33 -150 79 -196 76 -189 103 -186 51 6
50 27 -11 181 -32 79 -63 149 -69 155 -15 15 -41 15 -56 0z"/>
<path d="M5760 6928 c-32 -69 -100 -253 -100 -269 0 -22 21 -39 46 -39 19 0
30 21 83 154 33 85 61 157 61 160 0 12 -33 36 -51 36 -13 0 -26 -14 -39 -42z"/>
<path d="M3392 6838 c-20 -20 -14 -35 25 -67 43 -35 55 -38 74 -15 11 14 8 21
-28 55 -46 42 -53 45 -71 27z"/>
<path d="M6856 6816 c-69 -59 -28 -103 44 -46 44 35 50 54 21 70 -25 13 -20
15 -65 -24z"/>
<path d="M3250 6595 c-6 -8 -8 -19 -5 -26 16 -25 398 -184 421 -175 23 9 29
38 10 51 -19 15 -388 165 -404 165 -5 0 -15 -7 -22 -15z"/>
<path d="M6855 6536 c-99 -40 -190 -78 -203 -85 -27 -14 -27 -54 0 -59 9 -2
94 29 190 69 228 94 230 95 226 122 -2 12 -10 23 -18 24 -8 1 -96 -30 -195
-71z"/>
<path d="M3154 6389 c-25 -28 -9 -40 116 -84 231 -81 270 -88 270 -47 0 23
-18 32 -185 89 -195 67 -181 64 -201 42z"/>
<path d="M7073 6376 c-63 -26 -78 -39 -70 -60 8 -21 35 -20 102 5 60 22 75 40
55 64 -16 19 -23 18 -87 -9z"/>
<path d="M6868 6308 c-88 -31 -108 -49 -86 -75 14 -17 34 -13 131 24 62 23 68
28 65 51 -2 14 -7 27 -13 28 -5 1 -49 -11 -97 -28z"/>
<path d="M3796 6204 c-9 -8 -16 -18 -16 -21 0 -22 48 -47 160 -84 110 -37 131
-41 145 -29 9 7 15 23 13 34 -2 17 -28 30 -128 68 -139 53 -152 55 -174 32z"/>
<path d="M6395 6189 c-197 -75 -186 -69 -183 -98 5 -39 37 -37 177 12 128 44
155 63 135 95 -17 26 -41 24 -129 -9z"/>
<path d="M3055 6129 c-4 -12 -3 -25 2 -30 5 -5 55 -23 112 -40 100 -31 105
-31 118 -13 7 10 12 23 10 29 -4 13 -173 73 -209 74 -19 1 -29 -5 -33 -20z"/>
<path d="M7123 6117 c-50 -18 -95 -35 -98 -39 -11 -11 5 -48 22 -48 26 0 212
60 218 70 12 19 -6 50 -28 49 -12 0 -63 -15 -114 -32z"/>
<path d="M3450 6040 c-24 -24 -25 -43 -4 -64 21 -22 57 -20 78 3 23 25 13 59
-21 72 -32 12 -30 12 -53 -11z"/>
<path d="M6790 6036 c-15 -20 -9 -56 12 -70 25 -16 72 4 76 32 5 31 -15 52
-48 52 -15 0 -33 -7 -40 -14z"/>
<path d="M3008 5949 c-28 -16 -23 -57 8 -71 47 -22 85 30 49 66 -19 18 -33 20
-57 5z"/>
<path d="M7252 5948 c-7 -7 -12 -25 -12 -40 0 -36 41 -49 70 -23 25 22 25 37
2 58 -22 20 -43 22 -60 5z"/>
<path d="M2999 5136 c-15 -33 4 -58 39 -54 55 7 54 70 -1 76 -21 3 -30 -3 -38
-22z"/>
<path d="M7244 5135 c-8 -31 10 -55 41 -55 34 0 51 25 37 55 -16 36 -69 36
-78 0z"/>
<path d="M3445 5066 c-31 -47 22 -93 70 -62 29 19 32 47 9 70 -23 24 -61 20
-79 -8z"/>
<path d="M6792 5078 c-20 -20 -14 -56 13 -74 23 -15 27 -15 50 0 46 30 25 86
-32 86 -11 0 -24 -5 -31 -12z"/>
<path d="M3950 4965 c-69 -24 -133 -48 -142 -54 -22 -14 -23 -44 -2 -62 14
-11 33 -7 128 25 128 45 186 72 186 87 0 19 -21 49 -33 48 -7 -1 -68 -21 -137
-44z"/>
<path d="M6210 4995 c-27 -32 -7 -49 110 -93 63 -23 134 -45 156 -48 38 -6 43
-4 49 17 11 34 -17 51 -158 98 -137 46 -140 47 -157 26z"/>
<path d="M7025 4989 c-4 -12 -2 -26 3 -31 6 -6 54 -23 108 -39 95 -29 99 -29
116 -11 18 18 18 19 1 33 -17 15 -184 69 -210 69 -6 0 -15 -9 -18 -21z"/>
<path d="M3230 4990 c-14 -5 -58 -18 -97 -30 -58 -16 -73 -25 -73 -40 0 -41
23 -41 147 -4 88 26 98 33 88 64 -7 21 -24 24 -65 10z"/>
<path d="M6781 4822 c-5 -10 -6 -24 -2 -31 9 -13 284 -108 342 -117 32 -5 38
-3 44 16 5 15 2 26 -6 31 -14 9 -348 119 -361 119 -4 0 -12 -8 -17 -18z"/>
<path d="M3450 4815 c-19 -7 -75 -28 -125 -45 -181 -64 -176 -61 -173 -84 2
-14 11 -22 28 -24 25 -3 344 108 362 126 5 5 6 16 2 25 -7 21 -45 21 -94 2z"/>
<path d="M3495 4606 c-241 -101 -245 -102 -245 -126 0 -11 7 -23 15 -26 8 -4
91 24 183 61 226 91 244 101 240 128 -2 13 -11 23 -23 24 -11 1 -87 -26 -170
-61z"/>
<path d="M6637 4663 c-18 -17 -4 -44 31 -61 69 -35 349 -142 371 -142 27 0 39
27 20 45 -16 16 -378 165 -401 165 -8 0 -18 -3 -21 -7z"/>
<path d="M4588 4423 c-8 -10 -20 -31 -26 -48 -6 -16 -29 -78 -51 -138 -45
-116 -44 -147 3 -147 28 0 32 8 96 179 47 126 49 135 34 153 -21 23 -37 23
-56 1z"/>
<path d="M5676 4425 c-23 -17 -20 -27 40 -190 50 -133 59 -147 87 -143 44 7
43 29 -14 178 -50 132 -69 171 -87 170 -4 0 -15 -7 -26 -15z"/>
<path d="M3419 4282 c-42 -38 -46 -72 -10 -72 28 0 94 62 86 82 -12 31 -35 28
-76 -10z"/>
<path d="M6831 4307 c-20 -20 -12 -42 31 -75 42 -32 42 -32 62 -12 20 19 20
20 -5 46 -35 38 -73 56 -88 41z"/>
<path d="M4207 3958 c-33 -51 -34 -74 -5 -84 17 -5 27 0 45 22 34 42 40 74 18
91 -26 18 -27 18 -58 -29z"/>
<path d="M6040 3980 c-9 -17 -6 -29 17 -65 46 -74 93 -52 57 26 -15 35 -39 59
-58 59 -3 0 -10 -9 -16 -20z"/>
<path d="M3993 3942 c-32 -32 -123 -180 -123 -200 0 -24 27 -37 46 -22 7 6 40
52 74 101 41 61 59 96 55 109 -8 26 -32 32 -52 12z"/>
<path d="M6276 3941 c-15 -16 -11 -25 44 -113 33 -52 66 -101 74 -107 16 -14
42 -5 51 16 6 18 -116 207 -139 216 -8 3 -21 -2 -30 -12z"/>
<path d="M4597 3863 c-13 -22 -147 -398 -147 -414 0 -26 38 -35 55 -12 7 10
36 81 63 158 92 259 87 241 73 259 -14 17 -37 21 -44 9z"/>
<path d="M5671 3856 c-8 -10 1 -49 43 -167 102 -290 99 -286 140 -256 16 12
15 19 -19 112 -21 55 -52 144 -71 199 -18 54 -39 105 -45 112 -15 18 -33 18
-48 0z"/>
<path d="M4363 3788 c-6 -7 -34 -66 -63 -132 -55 -122 -57 -146 -16 -154 12
-3 26 17 52 75 19 43 47 104 62 136 26 58 26 59 7 73 -23 17 -30 17 -42 2z"/>
<path d="M5907 3793 c-4 -3 -7 -13 -7 -22 0 -26 103 -263 117 -268 17 -7 43
15 43 34 0 14 -37 103 -87 211 -23 49 -47 65 -66 45z"/>
<path d="M6147 3779 c-24 -14 -22 -27 19 -105 42 -78 51 -87 76 -73 26 14 23
34 -17 104 -42 75 -54 87 -78 74z"/>
<path d="M4091 3711 c-45 -76 -49 -96 -25 -105 34 -13 45 -3 83 73 30 58 37
81 28 90 -24 24 -45 10 -86 -58z"/>
<path d="M4658 3405 c-10 -22 -9 -29 10 -47 18 -19 25 -20 47 -10 18 9 25 19
25 41 0 47 -62 59 -82 16z"/>
<path d="M5582 3418 c-39 -39 17 -100 58 -63 34 31 20 75 -25 75 -12 0 -26 -5
-33 -12z"/>
<path d="M3874 2421 c-97 -25 -186 -99 -227 -189 -18 -39 -22 -65 -22 -157 0
-94 3 -116 22 -150 38 -71 91 -123 161 -157 60 -30 75 -33 152 -32 104 1 174
26 243 87 l49 42 -62 54 c-52 46 -65 52 -79 43 -85 -62 -133 -78 -190 -62 -80
21 -131 91 -131 180 0 67 19 110 66 148 74 62 141 56 246 -20 13 -10 26 -3 78
42 l63 54 -42 37 c-65 58 -124 81 -216 85 -44 2 -94 0 -111 -5z"/>
<path d="M5463 2416 c-61 -20 -106 -51 -157 -107 -59 -66 -81 -130 -81 -239 0
-72 4 -93 27 -140 35 -71 97 -133 167 -167 74 -36 197 -38 282 -5 69 27 140
96 177 172 24 48 27 67 27 150 0 88 -3 101 -33 162 -36 74 -87 124 -161 159
-57 28 -186 36 -248 15z m177 -166 c87 -45 124 -163 80 -255 -64 -132 -245
-134 -309 -3 -78 163 76 336 229 258z"/>
<path d="M7610 2421 c-139 -43 -210 -185 -147 -296 30 -54 71 -79 169 -104
145 -37 187 -72 139 -115 -42 -38 -150 -23 -231 31 l-34 23 -39 -38 c-59 -57
-62 -68 -31 -97 122 -113 353 -124 462 -22 65 61 81 167 37 243 -32 55 -68 76
-194 113 -112 33 -131 44 -131 71 0 51 102 60 189 16 l54 -28 54 55 55 54 -54
35 c-88 59 -216 84 -298 59z"/>
<path d="M2390 2416 c0 -2 74 -155 165 -340 l164 -336 74 0 75 0 37 78 c95
196 285 595 285 599 0 2 -43 2 -96 1 l-96 -3 -89 -200 c-49 -110 -95 -213
-103 -230 l-14 -30 -35 75 c-19 41 -65 146 -103 232 l-69 158 -97 0 c-54 0
-98 -2 -98 -4z"/>
<path d="M3315 2250 c-4 -93 -4 -246 0 -340 l8 -170 78 0 79 0 0 324 c0 178 3
331 6 340 5 14 -5 16 -79 16 l-84 0 -8 -170z"/>
<path d="M4552 2343 l3 -78 109 -3 109 -3 -4 -127 c-2 -70 -2 -187 -1 -259 l2
-133 80 0 80 0 0 260 0 260 100 0 c97 0 100 1 101 23 0 12 2 48 5 80 l5 57
-296 0 -296 0 3 -77z"/>
<path d="M6036 2173 c7 -281 15 -314 85 -378 105 -95 331 -79 414 29 50 66 54
92 55 354 l0 242 -85 0 -85 0 0 -229 0 -229 -26 -31 c-52 -62 -142 -50 -175
23 -16 36 -19 68 -19 254 l0 212 -85 0 -86 0 7 -247z"/>
<path d="M6750 2081 l0 -341 80 0 80 0 0 99 0 98 37 6 c46 8 51 3 130 -113
l58 -85 98 -3 c53 -1 97 0 97 3 0 4 -19 32 -43 63 -48 63 -107 148 -107 155 0
2 22 18 49 36 140 90 122 311 -33 394 -38 20 -57 22 -243 25 l-203 3 0 -340z
m355 173 c57 -27 69 -99 23 -140 -15 -14 -41 -19 -119 -22 l-99 -4 0 91 0 91
81 0 c53 0 92 -5 114 -16z"/>
</g>
</svg>
